<?xml version="1.0" standalone="no"?>
<!DOCTYPE svg PUBLIC "-//W3C//DTD SVG 20010904//EN"
 "http://www.w3.org/TR/2001/REC-SVG-20010904/DTD/svg10.dtd">
<svg version="1.0" xmlns="http://www.w3.org/2000/svg"
 width="2000.000000pt" height="2000.000000pt" viewBox="0 0 2000.000000 2000.000000"
 preserveAspectRatio="xMidYMid meet">
<metadata>
Created by potrace 1.11, written by Peter Selinger 2001-2013
</metadata>
<g transform="translate(0.000000,2000.000000) scale(0.100000,-0.100000)"
fill="#000000" stroke="none">
<path d="M0 10000 l0 -10000 10000 0 10000 0 0 10000 0 10000 -10000 0 -10000
0 0 -10000z m8273 6580 c150 -5 326 -14 392 -20 357 -31 349 -30 615 -71 144
-22 193 -32 390 -80 211 -52 504 -146 645 -206 44 -19 118 -51 165 -71 47 -19
103 -45 125 -57 22 -12 67 -37 100 -55 33 -18 94 -51 135 -73 100 -54 424
-279 470 -327 3 -3 39 -34 80 -69 41 -35 98 -87 125 -116 266 -276 442 -493
570 -700 96 -157 262 -488 305 -610 16 -44 47 -130 68 -191 34 -95 101 -346
132 -494 5 -25 17 -106 26 -180 8 -74 20 -160 26 -190 14 -74 14 -875 0 -955
-6 -33 -18 -123 -27 -200 -18 -160 -26 -210 -60 -350 -13 -55 -31 -129 -39
-165 -37 -154 -143 -451 -214 -600 -33 -69 -67 -142 -76 -163 -18 -43 -194
-330 -240 -392 -181 -240 -427 -492 -656 -672 -147 -114 -440 -301 -556 -353
-27 -13 -105 -50 -174 -82 -108 -52 -254 -111 -340 -138 -14 -4 -61 -21 -105
-38 -66 -26 -262 -82 -365 -105 -14 -3 -42 -10 -64 -16 -21 -5 -47 -6 -58 -2
-10 4 -47 39 -81 78 -73 84 -459 516 -467 523 -7 6 -495 551 -539 602 -17 20
-28 39 -24 41 9 6 106 19 268 38 55 6 123 17 150 24 28 7 75 18 105 24 111 24
148 34 303 83 86 27 194 67 240 87 45 21 108 50 141 65 82 38 278 168 361 240
38 34 83 72 99 86 62 55 257 303 339 432 48 76 87 140 87 143 0 2 14 35 31 72
79 172 162 424 188 568 29 160 42 251 52 370 15 169 5 559 -16 680 -9 50 -20
115 -25 145 -12 81 -17 100 -72 275 -47 147 -67 201 -134 355 -59 135 -230
398 -390 600 -58 72 -200 213 -254 250 -37 26 -54 39 -104 81 -108 90 -447
253 -641 308 -60 17 -123 35 -140 40 -28 9 -182 42 -285 62 -269 52 -580 60
-2315 57 l-1530 -3 -3 -2525 c-1 -1389 0 -2535 3 -2547 l5 -23 943 -2 942 -3
-21 -20 c-11 -11 -62 -58 -114 -105 -139 -126 -134 -120 -112 -144 38 -43 207
-233 241 -271 186 -206 408 -454 506 -565 66 -74 148 -166 183 -204 34 -38 62
-73 62 -78 0 -4 -593 -9 -1317 -10 l-1318 -3 -5 -2550 -5 -2550 -857 -3 -858
-2 0 6508 c0 3580 3 6512 7 6515 10 11 4674 8 4976 -3z m1416 -10175 c79 -88
176 -196 216 -240 39 -44 152 -170 250 -280 97 -110 194 -218 214 -240 20 -22
74 -82 121 -133 l85 -94 -80 -76 c-193 -182 -240 -227 -405 -382 -161 -151
-234 -220 -440 -415 -67 -63 -259 -244 -510 -479 -47 -43 -123 -116 -170 -160
-47 -45 -155 -148 -241 -229 l-156 -147 -1144 0 -1144 1 75 71 c41 39 113 108
160 152 47 45 159 151 250 236 91 85 242 226 335 314 94 89 208 197 255 241
47 44 128 120 180 170 52 49 136 128 185 174 50 46 128 121 175 165 47 45 121
115 165 156 77 72 160 150 350 329 50 47 131 123 180 170 50 47 160 151 245
231 243 227 432 406 580 548 58 56 92 81 105 80 12 -2 80 -69 164 -163z m2173
18 c87 -91 234 -246 333 -353 39 -41 106 -113 151 -160 44 -47 120 -128 170
-180 49 -52 159 -169 245 -260 85 -91 193 -206 240 -255 124 -134 712 -758
794 -845 40 -41 186 -196 325 -345 140 -148 287 -304 326 -345 39 -41 86 -92
104 -112 l32 -38 -1075 0 -1075 0 -42 47 c-23 26 -108 117 -189 203 -81 85
-268 283 -416 440 -147 157 -300 319 -339 360 -39 41 -145 154 -236 250 -91
96 -201 213 -246 260 -153 160 -339 361 -342 370 -3 7 88 91 388 359 47 42
130 117 185 166 305 276 577 515 584 515 5 0 42 -35 83 -77z"/>
</g>
</svg>
