<svg id="Capa_1" enable-background="new 0 0 512 512" height="512" viewBox="0 0 512 512" width="512" xmlns="http://www.w3.org/2000/svg"><g><path d="m151.213 406.755c11.956 0 21.682-9.726 21.682-21.681v-23.549c0-11.955-9.726-21.681-21.682-21.681-11.955 0-21.681 9.726-21.681 21.681v23.549c0 11.955 9.727 21.681 21.681 21.681zm-6.681-45.23c0-3.684 2.997-6.682 6.681-6.682s6.682 2.997 6.682 6.682v23.549c0 3.684-2.998 6.681-6.682 6.681s-6.681-2.997-6.681-6.681z"/><path d="m360.786 406.755c11.955 0 21.681-9.726 21.681-21.681v-23.549c0-11.955-9.726-21.681-21.681-21.681s-21.681 9.726-21.681 21.681v23.549c0 11.955 9.726 21.681 21.681 21.681zm-6.682-45.23c0-3.684 2.997-6.682 6.681-6.682s6.681 2.997 6.681 6.682v23.549c0 3.684-2.997 6.681-6.681 6.681s-6.681-2.997-6.681-6.681z"/><path d="m200.266 370.755h111.467c4.142 0 7.5-3.358 7.5-7.5s-3.357-7.5-7.5-7.5h-111.467c-4.142 0-7.5 3.358-7.5 7.5s3.357 7.5 7.5 7.5z"/><path d="m200.266 393.674h111.467c4.142 0 7.5-3.358 7.5-7.5s-3.357-7.5-7.5-7.5h-111.467c-4.142 0-7.5 3.358-7.5 7.5s3.357 7.5 7.5 7.5z"/><path d="m504.494 496.995h-15.091v-311.803c1.754-.197 3.495-.609 5.183-1.265 5.114-1.988 9.144-5.849 11.343-10.863l4.318-9.807c2.211-5.016 2.334-10.594.348-15.706-1.985-5.11-5.841-9.141-10.859-11.352l-50.429-22.2c-3.786-1.667-8.216.051-9.886 3.842-1.669 3.791.052 8.217 3.843 9.886l50.426 22.199c1.351.595 2.389 1.681 2.924 3.058.534 1.375.502 2.875-.094 4.226l-4.323 9.82c-.591 1.348-1.673 2.383-3.046 2.917-1.376.536-2.879.503-4.225-.088l-133.396-58.724c.716-4.734 1.089-9.58 1.089-14.51 0-3.027-.147-6.019-.421-8.975l63.607 27.998c.982.433 2.009.638 3.018.638 2.883 0 5.632-1.672 6.868-4.48 1.669-3.791-.052-8.217-3.843-9.886l-73.029-32.145c-11.663-40.255-48.857-69.769-92.819-69.769s-81.156 29.514-92.819 69.768l-150.92 66.426c-5.016 2.21-8.871 6.242-10.856 11.351-1.986 5.112-1.863 10.69.347 15.704l4.315 9.8c2.203 5.023 6.233 8.884 11.347 10.872 1.687.656 3.427 1.068 5.181 1.265v311.803h-15.089c-4.142 0-7.5 3.358-7.5 7.5s3.357 7.5 7.5 7.5h496.989c4.142 0 7.5-3.358 7.5-7.5s-3.358-7.5-7.501-7.5zm-248.494-481.99c45.005 0 81.619 36.614 81.619 81.619s-36.614 81.62-81.619 81.62-81.619-36.614-81.619-81.619 36.614-81.62 81.619-81.62zm-236.201 152.015-4.32-9.812c-.595-1.348-.627-2.848-.093-4.224.535-1.377 1.573-2.463 2.921-3.057l141.495-62.278c-.274 2.956-.421 5.949-.421 8.976 0 4.931.373 9.776 1.089 14.51l-133.391 58.72c-1.35.594-2.851.627-4.23.091-1.373-.533-2.455-1.569-3.05-2.926zm17.796 14.595 126.355-55.623c12.458 38.961 49.01 67.252 92.051 67.252s79.592-28.291 92.051-67.252l126.353 55.622v315.381h-96.213c3.074-4.902 4.859-10.691 4.859-16.892v-16.892h7.259c14.765 0 26.778-12.012 26.778-26.778 0-8.657-4.132-16.362-10.524-21.261 6.83-9.711 10.524-21.251 10.524-33.365v-8.33c0-24.079-14.717-44.783-35.629-53.599l-.821-5.279h9.949c6.964 0 13.512-2.713 18.438-7.639 4.925-4.926 7.638-11.474 7.638-18.438 0-14.379-11.697-26.077-26.076-26.077h-18.062l-1.713-11.015c-3.999-25.674-25.758-44.309-51.738-44.309h-126.148c-25.98 0-47.738 18.635-51.737 44.311l-1.713 11.014h-18.064c-6.966 0-13.513 2.713-18.439 7.639-4.925 4.925-7.638 11.473-7.638 18.438 0 14.379 11.698 26.077 26.077 26.077h9.951l-.811 5.211c-15.595 6.491-27.89 19.63-33.1 36.631-1.214 3.96 1.013 8.154 4.974 9.368 3.958 1.212 8.154-1.012 9.368-4.974 5.59-18.241 22.17-30.497 41.258-30.497h205.886c23.792 0 43.148 19.352 43.148 43.139v8.33c0 10.332-3.616 20.105-10.234 27.896-.511-.029-1.026-.048-1.544-.048h-268.616c-.519 0-1.033.019-1.544.048-5.321-6.289-8.786-14.053-9.858-22.213-.541-4.108-4.314-6.996-8.414-6.459-4.106.54-6.998 4.307-6.459 8.413 1.215 9.24 4.707 18.096 10.035 25.717-6.4 4.898-10.538 12.609-10.538 21.272 0 14.765 12.012 26.778 26.778 26.778h4.705v16.892c0 6.201 1.785 11.99 4.859 16.892h-93.661zm103.801 298.488v-16.892h33.783v16.892c0 9.314-7.577 16.892-16.891 16.892s-16.892-7.578-16.892-16.892zm-19.704-55.448h268.617c6.494 0 11.778 5.284 11.778 11.779 0 6.494-5.284 11.778-11.778 11.778h-268.617c-6.494 0-11.778-5.284-11.778-11.778-.001-6.495 5.284-11.779 11.778-11.779zm68.487 55.448v-16.892h129.088v16.892c0 6.201 1.785 11.99 4.859 16.892h-138.806c3.074-4.902 4.859-10.691 4.859-16.892zm144.088 0v-16.892h33.783v16.892c0 9.314-7.577 16.892-16.891 16.892s-16.892-7.578-16.892-16.892zm3.888-164.764c-2.149-21.61-20.433-38.543-42.598-38.543s-40.449 16.933-42.598 38.543h-80.633l8.973-57.671c.896-5.77 5.786-9.959 11.627-9.959h126.147c5.842 0 10.731 4.188 11.627 9.961l8.973 57.669zm-15.114 0h-54.967c2.06-13.316 13.6-23.543 27.484-23.543 13.883-.001 25.423 10.226 27.483 23.543zm31.813 0-9.332-59.972c-2.037-13.129-13.161-22.657-26.449-22.657h-126.147c-13.287 0-24.41 9.529-26.449 22.654l-9.332 59.975h-4.093c-2.257 0-4.486.134-6.683.383l9.641-61.983c2.853-18.321 18.379-31.618 36.916-31.618h126.147c18.538 0 34.064 13.297 36.916 31.616l9.644 61.998c-2.198-.253-4.429-.397-6.695-.397h-4.084zm-221.157-15.74h-12.285c-6.108 0-11.077-4.969-11.077-11.077 0-2.958 1.152-5.74 3.245-7.832 2.092-2.092 4.874-3.245 7.832-3.245h15.731zm241.16-22.154h15.728c6.107 0 11.076 4.969 11.076 11.077 0 2.958-1.152 5.739-3.245 7.832-2.092 2.093-4.874 3.245-7.831 3.245h-12.283z"/><path d="m240.901 95.891c.01 1.989.81 3.893 2.223 5.293 1.405 1.391 3.302 2.17 5.277 2.17h.037c5.353-.027 11.072-.051 14.436-.051 12.476 0 23.017-10.289 23.017-22.468s-10.541-22.468-23.017-22.468h-14.556c-1.993 0-3.903.793-5.31 2.204s-2.195 3.324-2.189 5.317c-.001.001.062 26.098.082 30.003zm21.973-22.524c4.271 0 8.017 3.49 8.017 7.469s-3.746 7.468-8.017 7.468c-1.8 0-4.27.007-7 .017-.013-4.497-.025-9.929-.037-14.509l-.001-.445z"/><path d="m231.733 159.67h6.937c9.434 0 17.109-7.675 17.109-17.108v-13.087c2.77-.011 5.282-.018 7.095-.018 27.114 0 49.172-21.812 49.172-48.622s-22.058-48.622-49.172-48.622h-27.481c-3.267 0-6.326.679-9.095 2.018-7.225 3.497-11.699 10.634-11.674 18.601v89.73c.001 9.433 7.676 17.108 17.109 17.108zm-2.108-106.862c-.007-2.169 1.223-4.114 3.208-5.075.703-.34 1.589-.52 2.561-.52h27.481c18.842 0 34.172 15.083 34.172 33.623s-15.33 33.622-34.172 33.622c-3.393 0-9.217.025-14.632.052-4.128.021-7.463 3.372-7.463 7.5v20.553c0 1.163-.946 2.108-2.109 2.108h-6.937c-1.162 0-2.108-.946-2.108-2.108v-89.755z"/></g></svg>