<?xml version="1.0"?>
<svg xmlns="http://www.w3.org/2000/svg" xmlns:xlink="http://www.w3.org/1999/xlink" xmlns:svgjs="http://svgjs.com/svgjs" version="1.1" width="512" height="512" x="0" y="0" viewBox="0 0 512.001 512.001" style="enable-background:new 0 0 512 512" xml:space="preserve" class=""><g>
<g xmlns="http://www.w3.org/2000/svg">
	<g>
		<path d="M162.609,300.565c-16.542,0-30,13.458-30,30c0,16.541,13.458,29.999,30,29.999c16.542,0,30-13.458,30-29.999    C192.609,314.023,179.151,300.565,162.609,300.565z M162.609,340.564c-5.514,0-10-4.485-10-9.999c0-5.514,4.486-10,10-10    c5.514,0,10,4.486,10,10C172.609,336.078,168.123,340.564,162.609,340.564z" fill="#ffffff" data-original="#000000" style="" class=""/>
	</g>
</g>
<g xmlns="http://www.w3.org/2000/svg">
	<g>
		<path d="M349.39,300.565c-16.542,0-30,13.458-30,30c0,16.541,13.458,29.999,30,29.999s30-13.458,30-29.999    C379.39,314.023,365.932,300.565,349.39,300.565z M349.39,340.564c-5.514,0-10-4.485-10-9.999c0-5.514,4.486-10,10-10    c5.514,0,10,4.486,10,10C359.39,336.078,354.904,340.564,349.39,340.564z" fill="#ffffff" data-original="#000000" style="" class=""/>
	</g>
</g>
<g xmlns="http://www.w3.org/2000/svg">
	<g>
		<path d="M295.298,301.461h-47.625c-5.523,0-10,4.477-10,10s4.477,10,10,10h47.625c5.523,0,10-4.477,10-10    S300.821,301.461,295.298,301.461z" fill="#ffffff" data-original="#000000" style="" class=""/>
	</g>
</g>
<g xmlns="http://www.w3.org/2000/svg">
	<g>
		<path d="M216.957,301.464h-0.256c-5.523,0-10,4.477-10,10s4.477,10,10,10h0.256c5.523,0,10-4.477,10-10    S222.48,301.464,216.957,301.464z" fill="#ffffff" data-original="#000000" style="" class=""/>
	</g>
</g>
<g xmlns="http://www.w3.org/2000/svg">
	<g>
		<path d="M295.298,339.667h-0.256c-5.523,0-10,4.477-10,10s4.477,10,10,10h0.256c5.523,0,10-4.477,10-10    S300.821,339.667,295.298,339.667z" fill="#ffffff" data-original="#000000" style="" class=""/>
	</g>
</g>
<g xmlns="http://www.w3.org/2000/svg">
	<g>
		<path d="M264.326,339.664h-47.625c-5.523,0-10,4.477-10,10s4.477,10,10,10h47.625c5.523,0,10-4.477,10-10    S269.849,339.664,264.326,339.664z" fill="#ffffff" data-original="#000000" style="" class=""/>
	</g>
</g>
<g xmlns="http://www.w3.org/2000/svg">
	<g>
		<path d="M502.001,460.002h-16.394v-245.95h16.394c2.652,0,5.196-1.054,7.071-2.929c1.876-1.876,2.929-4.419,2.929-7.071    L512,179.253c0-0.01,0-0.019,0-0.028v-0.075c0-0.094-0.012-0.185-0.014-0.278c-0.006-0.222-0.012-0.444-0.034-0.665    c-0.015-0.167-0.043-0.329-0.067-0.494c-0.023-0.153-0.041-0.308-0.07-0.46c-0.036-0.189-0.084-0.374-0.131-0.56    c-0.032-0.126-0.061-0.254-0.098-0.379c-0.055-0.186-0.12-0.366-0.185-0.547c-0.045-0.126-0.087-0.251-0.137-0.375    c-0.067-0.165-0.143-0.325-0.218-0.485c-0.064-0.137-0.126-0.275-0.197-0.41c-0.072-0.137-0.152-0.27-0.23-0.403    c-0.088-0.15-0.175-0.301-0.271-0.447c-0.075-0.114-0.157-0.222-0.236-0.333c-0.111-0.154-0.222-0.308-0.342-0.457    c-0.083-0.102-0.173-0.199-0.26-0.298c-0.126-0.143-0.25-0.287-0.385-0.423c-0.109-0.111-0.225-0.213-0.339-0.319    c-0.122-0.113-0.241-0.228-0.369-0.335c-0.167-0.14-0.343-0.268-0.519-0.397c-0.078-0.057-0.15-0.121-0.23-0.176l-0.065-0.045    c-0.006-0.004-0.011-0.008-0.017-0.012L261.666,1.76c-3.413-2.347-7.919-2.347-11.332,0L4.414,170.854    c-0.004,0.003-0.009,0.006-0.013,0.009l-0.067,0.046c-0.084,0.058-0.159,0.123-0.24,0.184c-0.172,0.126-0.345,0.252-0.508,0.389    c-0.132,0.11-0.252,0.227-0.377,0.342c-0.111,0.104-0.226,0.204-0.332,0.312c-0.137,0.138-0.263,0.284-0.39,0.429    c-0.085,0.097-0.173,0.191-0.254,0.292c-0.122,0.151-0.234,0.307-0.347,0.464c-0.078,0.108-0.157,0.214-0.231,0.325    c-0.097,0.148-0.186,0.3-0.275,0.453c-0.077,0.131-0.156,0.262-0.228,0.397c-0.071,0.136-0.135,0.276-0.2,0.415    c-0.074,0.158-0.149,0.316-0.215,0.479c-0.051,0.126-0.094,0.253-0.14,0.381c-0.064,0.179-0.129,0.358-0.183,0.542    c-0.038,0.127-0.066,0.256-0.099,0.384c-0.046,0.184-0.094,0.367-0.13,0.554c-0.03,0.154-0.048,0.31-0.071,0.466    c-0.024,0.163-0.051,0.323-0.066,0.489c-0.022,0.222-0.027,0.444-0.034,0.667C0.011,178.966,0,179.056,0,179.149v0.074    c0,0.01,0,0.02,0,0.029v24.799c0,5.523,4.477,10,10,10h16.393v245.95H10c-5.523,0-10,4.477-10,10v32c0,5.523,4.477,10,10,10    h492.001c5.523,0,10-4.477,10-10v-32C512.001,464.479,507.524,460.002,502.001,460.002z M20,194.052v-9.642L256,22.136L492,184.41    l0.001,9.642h-13.287L261.666,44.81c-3.413-2.347-7.919-2.347-11.332,0L33.286,194.052H20z M416,375.564v-70.001    c0-7.283-1.966-14.112-5.381-20H421c5.523,0,10-4.477,10-10v-32c0-5.523-4.477-10-10-10h-35v-22.766    c0-19.428-15.806-35.234-35.234-35.234H161.234c-19.428,0-35.234,15.806-35.234,35.234v22.766H91c-5.523,0-10,4.477-10,10v32    c0,5.523,4.477,10,10,10h10.381c-3.415,5.888-5.381,12.717-5.381,20v70.001c-5.523,0-10,4.477-10,10v15    c0,10.23,6.18,19.041,15,22.906v34.532c0,0.674,0.035,1.34,0.095,1.999H46.392V209.312L256,65.186l209.607,144.125v250.69h-54.702    c0.06-0.659,0.095-1.325,0.095-1.999V423.47c8.82-3.866,15-12.676,15-22.906v-15C426,380.041,421.523,375.564,416,375.564z     M111,405.565c-2.71,0-5-2.29-5-5v-5h300v5c0,2.71-2.29,5-5,5H111z M391,425.565v32.438c0,1.084-0.916,1.999-2,1.999h-21.125    c-1.084,0-2-0.915-2-1.999v-32.438H391z M345.97,460.002H166.031c0.059-0.659,0.095-1.325,0.095-1.999v-32.438h179.749v32.438    C345.875,458.677,345.91,459.343,345.97,460.002z M146.126,425.565v32.438c0,1.084-0.916,1.999-2,1.999H123    c-1.084,0-2-0.915-2-1.999v-32.438H146.126z M365.999,265.564H146v-54.766c0-8.4,6.834-15.234,15.234-15.234h189.531    c8.4,0,15.234,6.834,15.234,15.234V265.564z M376,285.564c11.028,0,20,8.972,20,20v70.001H116c0,0,0-70.001,0-70.001    c0-11.028,8.972-20,20-20H376z M126,265.564h-25v-12h25V265.564z M386,265.564v-12h25v12H386z M492.001,492.002H20v-12h472.001    V492.002z" fill="#ffffff" data-original="#000000" style="" class=""/>
	</g>
</g>
<g xmlns="http://www.w3.org/2000/svg">
</g>
<g xmlns="http://www.w3.org/2000/svg">
</g>
<g xmlns="http://www.w3.org/2000/svg">
</g>
<g xmlns="http://www.w3.org/2000/svg">
</g>
<g xmlns="http://www.w3.org/2000/svg">
</g>
<g xmlns="http://www.w3.org/2000/svg">
</g>
<g xmlns="http://www.w3.org/2000/svg">
</g>
<g xmlns="http://www.w3.org/2000/svg">
</g>
<g xmlns="http://www.w3.org/2000/svg">
</g>
<g xmlns="http://www.w3.org/2000/svg">
</g>
<g xmlns="http://www.w3.org/2000/svg">
</g>
<g xmlns="http://www.w3.org/2000/svg">
</g>
<g xmlns="http://www.w3.org/2000/svg">
</g>
<g xmlns="http://www.w3.org/2000/svg">
</g>
<g xmlns="http://www.w3.org/2000/svg">
</g>
</g></svg>
