<?xml version="1.0"?>
<svg xmlns="http://www.w3.org/2000/svg" xmlns:xlink="http://www.w3.org/1999/xlink" xmlns:svgjs="http://svgjs.com/svgjs" version="1.1" width="512" height="512" x="0" y="0" viewBox="0 0 464 464" style="enable-background:new 0 0 512 512" xml:space="preserve"><g><path xmlns="http://www.w3.org/2000/svg" d="m272 251.414062c0-6.292968-5.121094-11.414062-11.414062-11.414062-1.761719 0-3.53125.414062-5.113282 1.207031l-17.761718 8.871094c-7.726563 3.875-16.390626 5.921875-25.046876 5.921875h-28.664062c-4.40625 0-8 3.585938-8 8v32c0 26.472656 21.527344 48 48 48s48-21.527344 48-48zm0 0" fill="#ffffff" data-original="#000000" style=""/><path xmlns="http://www.w3.org/2000/svg" d="m144 288c0 8.824219 7.175781 16 16 16h.550781c-.328125-2.625-.550781-5.289062-.550781-8v-24c-8.824219 0-16 7.175781-16 16zm0 0" fill="#ffffff" data-original="#000000" style=""/><path xmlns="http://www.w3.org/2000/svg" d="m288 296c0 2.710938-.222656 5.375-.550781 8h.550781c8.824219 0 16-7.175781 16-16s-7.175781-16-16-16zm0 0" fill="#ffffff" data-original="#000000" style=""/><path xmlns="http://www.w3.org/2000/svg" d="m177.601562 380.480469 10.789063 37.757812 23.632813-18.902343-22.34375-22.34375zm0 0" fill="#ffffff" data-original="#000000" style=""/><path xmlns="http://www.w3.org/2000/svg" d="m144 260.449219c4.726562-2.753907 10.144531-4.449219 16-4.449219h1.472656c3.3125-9.289062 12.113282-16 22.527344-16h28.664062c6.175782 0 12.359376-1.464844 17.886719-4.222656l17.761719-8.882813c3.808594-1.894531 8.039062-2.894531 12.273438-2.894531 15.109374 0 27.414062 12.296875 27.414062 27.414062v4.585938c5.855469 0 11.273438 1.695312 16 4.449219v-20.449219c0-44.113281-35.886719-80-80-80s-80 35.886719-80 80zm0 0" fill="#ffffff" data-original="#000000" style=""/><path xmlns="http://www.w3.org/2000/svg" d="m248 364.6875v-9.398438c-7.414062 3.015626-15.511719 4.710938-24 4.710938s-16.585938-1.695312-24-4.710938v9.398438l24 24zm0 0" fill="#ffffff" data-original="#000000" style=""/><path xmlns="http://www.w3.org/2000/svg" d="m270.398438 380.480469-12.078126-3.488281-22.34375 22.34375 23.632813 18.902343zm0 0" fill="#ffffff" data-original="#000000" style=""/><path xmlns="http://www.w3.org/2000/svg" d="m220.945312 448-8 16h22.109376l-8-16zm0 0" fill="#ffffff" data-original="#000000" style=""/><path xmlns="http://www.w3.org/2000/svg" d="m179.609375 445.761719-17.386719-60.851563-37.3125 10.769532c-17.023437 4.914062-28.910156 20.71875-28.910156 38.433593v29.886719h99.054688l11.210937-22.425781-9.53125-9.519531zm0 0" fill="#ffffff" data-original="#000000" style=""/><path xmlns="http://www.w3.org/2000/svg" d="m323.089844 395.679688-37.3125-10.769532-17.386719 60.851563-17.125-13.707031-9.53125 9.519531 11.210937 22.425781h99.054688v-29.886719c0-17.714843-11.886719-33.519531-28.910156-38.433593zm0 0" fill="#ffffff" data-original="#000000" style=""/><path xmlns="http://www.w3.org/2000/svg" d="m209.3125 422 10 10h9.375l10-10-14.6875-11.753906zm0 0" fill="#ffffff" data-original="#000000" style=""/><path xmlns="http://www.w3.org/2000/svg" d="m200 64 24-15.03125 24 15.03125-7.855469-26.753906 15.855469-13.246094-22.023438-5.726562-9.976562-18.273438-9.976562 18.273438-22.023438 5.726562 15.855469 13.246094zm0 0" fill="#ffffff" data-original="#000000" style=""/><path xmlns="http://www.w3.org/2000/svg" d="m320 48-9.976562 18.273438-22.023438 5.726562 15.855469 13.246094-7.855469 26.753906 24-15.03125 24 15.03125-7.855469-26.753906 15.855469-13.246094-22.023438-5.726562zm0 0" fill="#ffffff" data-original="#000000" style=""/><path xmlns="http://www.w3.org/2000/svg" d="m448 24-22.023438-5.726562-9.976562-18.273438-9.976562 18.273438-22.023438 5.726562 15.855469 13.246094-7.855469 26.753906 24-15.03125 24 15.03125-7.855469-26.753906zm0 0" fill="#ffffff" data-original="#000000" style=""/><path xmlns="http://www.w3.org/2000/svg" d="m104 112 24-15.03125 24 15.03125-7.855469-26.753906 15.855469-13.246094-22.023438-5.726562-9.976562-18.273438-9.976562 18.273438-22.023438 5.726562 15.855469 13.246094zm0 0" fill="#ffffff" data-original="#000000" style=""/><path xmlns="http://www.w3.org/2000/svg" d="m8 64 24-15.03125 24 15.03125-7.855469-26.753906 15.855469-13.246094-22.023438-5.726562-9.976562-18.273438-9.976562 18.273438-22.023438 5.726562 15.855469 13.246094zm0 0" fill="#ffffff" data-original="#000000" style=""/><path xmlns="http://www.w3.org/2000/svg" d="m424 136c0-13.230469-10.769531-24-24-24s-24 10.769531-24 24 10.769531 24 24 24c1.160156 0 2.265625-.183594 3.375-.34375 13.457031 27.304688 20.625 57.695312 20.625 88.34375 0 32.511719-7.976562 64.800781-23.070312 93.34375l14.148437 7.488281c16.296875-30.855469 24.921875-65.710937 24.921875-100.832031 0-33.222656-7.808594-66.175781-22.449219-95.753906 3.96875-4.277344 6.449219-9.957032 6.449219-16.246094zm-32 0c0-4.40625 3.59375-8 8-8s8 3.59375 8 8-3.59375 8-8 8-8-3.59375-8-8zm0 0" fill="#ffffff" data-original="#000000" style=""/><path xmlns="http://www.w3.org/2000/svg" d="m48 336c-1.160156 0-2.265625.183594-3.375.34375-13.457031-27.304688-20.625-57.695312-20.625-88.34375 0-32.519531 7.976562-64.800781 23.070312-93.34375l-14.140624-7.480469c-16.304688 30.839844-24.929688 65.703125-24.929688 100.824219 0 33.222656 7.808594 66.167969 22.441406 95.761719-3.960937 4.277343-6.441406 9.957031-6.441406 16.238281 0 13.230469 10.769531 24 24 24s24-10.769531 24-24-10.769531-24-24-24zm0 32c-4.40625 0-8-3.585938-8-8s3.59375-8 8-8 8 3.585938 8 8-3.59375 8-8 8zm0 0" fill="#ffffff" data-original="#000000" style=""/></g></svg>
